<?xml version="1.0" standalone="no"?><!DOCTYPE svg PUBLIC "-//W3C//DTD SVG 1.1//EN" "http://www.w3.org/Graphics/SVG/1.1/DTD/svg11.dtd"><svg t="1529582870323" class="icon" style="" viewBox="0 0 1024 1024" version="1.1" xmlns="http://www.w3.org/2000/svg" p-id="51775" xmlns:xlink="http://www.w3.org/1999/xlink" width="32" height="32"><defs><style type="text/css"></style></defs><path d="M578.494948 748.363266c82.080413-98.420567 211.745588-269.917476 211.745588-371.072317 0-147.972123-124.267235-267.934309-277.544177-267.934309S235.153206 229.317803 235.153206 377.290949c0 101.155864 129.668245 272.65175 211.744565 371.072317C480.74874 788.957823 544.643979 788.957823 578.494948 748.363266zM512.697383 259.015172c44.191478 0 80.007195 34.588773 80.007195 77.238129 0 42.664705-35.815717 77.253478-80.007195 77.253478-44.191478 0-80.007195-34.588773-80.007195-77.253478C432.690188 293.603945 468.504882 259.015172 512.697383 259.015172zM652.959917 674.257477c1.134847 4.28356 1.913583 8.638751 1.913583 13.104459 0 5.217838-0.921999 10.290367-2.478448 15.246239 47.179532 11.868305 77.202313 29.603225 77.202313 49.452295 0 35.738969-97.112782 64.698534-216.901005 64.698534s-216.901005-28.959565-216.901005-64.698534c0-19.84907 30.018687-37.592177 77.202313-49.452295-1.556449-4.956895-2.464121-10.029424-2.464121-15.246239 0-4.464685 0.763386-8.820899 1.910513-13.104459-139.039683 16.613376-237.299591 57.151651-237.299591 104.562451 0 62.187341 169.037904 112.609731 377.551892 112.609731 208.515011 0 377.547799-50.421366 377.547799-112.609731C890.245182 731.408105 791.991414 690.870854 652.959917 674.257477z" p-id="51776" fill="#1296db"></path></svg>