<?xml version="1.0" standalone="no"?><!DOCTYPE svg PUBLIC "-//W3C//DTD SVG 1.1//EN" "http://www.w3.org/Graphics/SVG/1.1/DTD/svg11.dtd"><svg t="1522038290922" class="icon" style="" viewBox="0 0 1024 1024" version="1.1" xmlns="http://www.w3.org/2000/svg" p-id="1427" xmlns:xlink="http://www.w3.org/1999/xlink" width="32" height="32"><defs><style type="text/css"></style></defs><path d="M922.202 410.184C922.202 183.729 738.511 0 511.982 0 285.417 0 101.798 183.729 101.798 410.184c0 110.799 44.115 211.155 115.51 284.997h-0.109L511.945 1024l294.966-328.819h-0.256c71.414-73.842 115.547-174.198 115.547-284.997z m-410.22 159.151c-87.866 0-159.042-71.322-159.042-159.187 0-87.866 71.176-159.042 159.042-159.042 87.865 0 159.041 71.176 159.041 159.042 0 87.865-71.175 159.187-159.041 159.187z" p-id="1428" fill="#1296db"></path></svg>