<?xml version="1.0" standalone="no"?><!DOCTYPE svg PUBLIC "-//W3C//DTD SVG 1.1//EN" "http://www.w3.org/Graphics/SVG/1.1/DTD/svg11.dtd"><svg t="1529548000942" class="icon" style="" viewBox="0 0 1024 1024" version="1.1" xmlns="http://www.w3.org/2000/svg" p-id="1028" xmlns:xlink="http://www.w3.org/1999/xlink" width="32" height="32"><defs><style type="text/css"></style></defs><path d="M512 1024c-212.676923 0-384.787692-50.806154-384.787692-113.821538 0-34.264615 51.987692-64.984615 133.513846-85.858462 4.332308-3.150769 9.452308-5.12 14.966154-5.12 1.181538 0 2.363077 0.393846 3.544615 0.787692l4.726154-1.181538c-0.393846 0.393846-0.393846 1.181538-1.181539 1.969231 10.24 2.756923 17.723077 11.421538 17.723077 21.661538 0 12.603077-11.027692 22.843077-24.812307 22.843077-2.363077 0-4.332308-0.787692-6.695385-1.181538-55.926154 12.209231-90.978462 28.356923-90.978461 46.473846 0 37.809231 149.267692 68.135385 333.587692 68.135384s333.587692-30.72 333.587692-68.135384c0-18.116923-34.658462-34.264615-90.978461-46.473846-1.969231 0.393846-4.332308 1.181538-6.695385 1.181538-13.784615 0-24.812308-10.24-24.812308-22.843077 0-10.24 7.483077-18.510769 17.723077-21.661538-0.393846-0.787692-0.393846-1.181538-0.787692-1.969231l4.726154 1.181538c1.181538 0 2.363077-0.787692 3.544615-0.787692 5.907692 0 11.027692 1.969231 14.966154 5.12 81.526154 20.873846 133.513846 51.593846 133.513846 85.858462 0.393846 63.015385-171.716923 113.821538-384.393846 113.821538z m0-102.4c-83.495385 0-358.4-336.344615-358.4-544.295385S313.895385 0 512 0s358.4 168.566154 358.4 376.910769S590.375385 921.6 512 921.6z m0-742.793846c-98.855385 0-178.806154 80.344615-178.806154 179.593846s79.950769 179.593846 178.806154 179.593846c98.855385 0 178.806154-80.344615 178.806154-179.593846S610.855385 178.806154 512 178.806154z" p-id="1029" fill="#1296db"></path></svg>